<svg width="47" height="47" viewBox="0 0 47 47" fill="none" xmlns="http://www.w3.org/2000/svg">
<path d="M21.3695 0.502117C22.6686 -0.165917 24.3249 -0.168826 25.5915 0.502117L44.9865 10.4303C46.1993 11.0497 47.0112 12.278 46.9999 13.5476V33.4541C47.008 34.7769 46.1166 36.0317 44.837 36.6392L25.5461 46.5217C25.4639 46.5629 25.3806 46.6015 25.2957 46.6376C25.2109 46.6737 25.1249 46.7073 25.0375 46.7382C24.9502 46.7691 24.8618 46.7974 24.7725 46.8229C24.6831 46.8484 24.5929 46.8713 24.5017 46.8914C24.4107 46.9115 24.3191 46.9288 24.2267 46.9434C24.1344 46.9581 24.0416 46.9698 23.9484 46.9787C23.8553 46.9877 23.7618 46.9938 23.6681 46.9971C23.5746 47.0004 23.481 47.0009 23.3873 46.9985C23.2935 46.9961 23.2001 46.991 23.1068 46.9831C23.0135 46.975 22.9206 46.9641 22.8281 46.9505C22.7356 46.9369 22.6437 46.9205 22.5524 46.9013C22.4611 46.8821 22.3706 46.8603 22.2809 46.8356C22.1912 46.811 22.1025 46.7836 22.0148 46.7536C21.9271 46.7236 21.8407 46.691 21.7554 46.6557C21.67 46.6205 21.5861 46.5827 21.5037 46.5424C21.4211 46.502 21.3401 46.4593 21.2607 46.4141L15.4718 43.3765C15.0772 43.1627 14.634 42.9931 14.3546 42.6466C14.6015 42.3458 15.0399 42.3075 15.3971 42.1747C16.2026 41.9418 16.9398 41.585 17.6803 41.2074C17.867 41.0895 18.096 41.1337 18.2746 41.2399L23.2109 43.8321C23.5634 44.0165 23.9206 43.7732 24.2226 43.6183L43.1644 33.9112C43.3983 33.8081 43.5281 33.5839 43.5088 33.351V13.636C43.5347 13.3707 43.3675 13.1288 43.1028 13.0211L23.8605 3.1814C23.8329 3.16407 23.804 3.14873 23.774 3.13537C23.7439 3.12201 23.7128 3.11077 23.6808 3.10164C23.6489 3.09265 23.6163 3.08577 23.5832 3.08114C23.55 3.07651 23.5168 3.07413 23.4831 3.074C23.4496 3.074 23.4164 3.07625 23.3832 3.08075C23.35 3.08524 23.3175 3.09199 23.2855 3.10098C23.2534 3.10984 23.2223 3.12095 23.1921 3.13431C23.162 3.14754 23.1331 3.16275 23.1055 3.17994L3.89072 13.0403C3.63101 13.1479 3.45229 13.3868 3.48477 13.6522V33.3671C3.46205 33.6002 3.59853 33.8198 3.83391 33.9201L8.96849 36.5523C9.93304 37.024 11.1168 37.2895 12.1788 36.943C12.2365 36.9233 12.2931 36.9016 12.3491 36.8779C12.4049 36.8542 12.4596 36.8287 12.5134 36.8013C12.5671 36.7738 12.6197 36.7446 12.671 36.7136C12.7222 36.6826 12.7721 36.6498 12.8207 36.6152C12.8692 36.5808 12.9163 36.5447 12.9617 36.5069C13.0073 36.4692 13.0511 36.4299 13.0934 36.3892C13.1356 36.3485 13.1761 36.3063 13.2149 36.2628C13.2536 36.2193 13.2905 36.1744 13.3254 36.1284C13.3604 36.0822 13.3933 36.035 13.4243 35.9867C13.4553 35.9383 13.4843 35.889 13.5113 35.8386C13.5382 35.7882 13.563 35.737 13.5856 35.6849C13.6081 35.633 13.6285 35.5802 13.6467 35.5268C13.6649 35.4732 13.681 35.4192 13.6947 35.3646C13.7083 35.3101 13.7197 35.2551 13.7287 35.1998C13.7379 35.1444 13.7446 35.0888 13.7491 35.033C13.7536 34.9772 13.7557 34.9213 13.7555 34.8653L13.7603 15.2684C13.7376 14.9779 14.0396 14.7376 14.3498 14.767H16.818C17.1428 14.7596 17.3977 15.0723 17.3539 15.3642L17.3489 35.085C17.3507 36.8368 16.5581 38.7419 14.7735 39.6016C12.575 40.6338 9.85672 40.417 7.68394 39.4247L2.16307 36.6525C0.863951 36.0627 -0.0079564 34.7886 5.47454e-05 33.4675V13.5609C0.000783025 13.4804 0.00442449 13.4 0.0109791 13.3199C0.0175337 13.2397 0.0270014 13.1597 0.0393823 13.0801C0.0517632 13.0005 0.0670573 12.9213 0.0852645 12.8426C0.103472 12.7639 0.124592 12.6858 0.14848 12.6083C0.172514 12.531 0.199169 12.4543 0.228737 12.3785C0.258306 12.3027 0.290496 12.2278 0.3256 12.1539C0.360558 12.0801 0.398283 12.0074 0.43863 11.9357C0.478977 11.8641 0.521946 11.7939 0.567392 11.7249C0.612837 11.6558 0.660904 11.5882 0.711302 11.5221C0.761845 11.4561 0.814573 11.3916 0.869777 11.3286C0.924982 11.2657 0.982371 11.2045 1.04209 11.145C1.10166 11.0856 1.16342 11.028 1.22737 10.9723C1.29117 10.9166 1.357 10.8629 1.42488 10.8111C1.49261 10.7594 1.56223 10.7098 1.63375 10.6622C1.70512 10.6147 1.77824 10.5693 1.85311 10.5262C1.92784 10.4831 2.00401 10.4423 2.0818 10.4039L21.3695 0.502117ZM26.962 14.3011C29.7664 14.1536 32.7688 14.2038 35.2922 15.4586C37.2456 16.42 38.3287 18.4372 38.3644 20.4102C38.3092 20.6757 38.0039 20.8231 37.7247 20.8039C36.9128 20.8024 36.0975 20.8143 35.2824 20.7995C34.9365 20.8112 34.7368 20.5222 34.693 20.245C34.4592 19.3014 33.8924 18.3679 32.9149 17.9123C31.4145 17.2296 29.6737 17.2634 28.037 17.2782C26.8419 17.3372 25.5575 17.4301 24.5457 18.0671C23.7663 18.5508 23.5325 19.5417 23.8101 20.3114C24.07 20.8762 24.7893 21.0575 25.3755 21.2256C28.7564 22.0277 32.3368 21.9629 35.6543 23.0054C37.0264 23.436 38.3694 24.2736 38.8403 25.5786C39.4541 27.3273 39.1861 29.4183 37.8172 30.8221C36.7065 31.9781 35.0892 32.5916 33.4735 32.9484C31.3252 33.3834 29.0974 33.3937 26.9166 33.199C24.8656 32.9867 22.732 32.4971 21.1487 31.229C19.7945 30.1615 19.1353 28.4982 19.2001 26.8939C19.2164 26.6225 19.5135 26.4338 19.8009 26.4559H22.2368C22.5648 26.4352 22.805 26.6918 22.8213 26.9719C22.9723 27.8567 23.3442 28.8152 24.2079 29.3313C25.874 30.3075 27.9639 30.2396 29.8702 30.2677C31.4502 30.2042 33.2234 30.185 34.5144 29.2354C35.1964 28.6943 35.3961 27.7903 35.2127 27.0117C35.0128 26.3541 34.2384 26.0489 33.5889 25.8321C30.2519 24.8737 26.6308 25.2216 23.3263 24.1364C21.9851 23.7058 20.6875 22.8919 20.1728 21.64C19.4535 19.8705 19.7831 17.6778 21.2981 16.3212C22.7595 14.972 24.903 14.4515 26.9328 14.2657L26.962 14.3011Z" fill="#8CC84B"/>
</svg>
